<svg width="17" height="16" viewBox="0 0 17 16" fill="none" xmlns="http://www.w3.org/2000/svg">
<path d="M15.7589 7.375L12.6857 10.0268L13.622 13.9926C13.6736 14.2079 13.6603 14.4337 13.5837 14.6414C13.5072 14.8491 13.3707 15.0295 13.1917 15.1597C13.0126 15.2899 12.799 15.3642 12.5778 15.3731C12.3566 15.3819 12.1377 15.325 11.9488 15.2096L8.49999 13.087L5.04914 15.2096C4.86026 15.3244 4.64163 15.3807 4.4208 15.3715C4.19996 15.3623 3.98679 15.288 3.80812 15.1579C3.62944 15.0277 3.49327 14.8477 3.41673 14.6403C3.34019 14.433 3.32672 14.2076 3.378 13.9926L4.31772 10.0268L1.24453 7.375C1.07741 7.23057 0.956551 7.0401 0.897039 6.82739C0.837527 6.61468 0.842 6.38915 0.9099 6.17896C0.977801 5.96878 1.10612 5.78325 1.27883 5.64556C1.45154 5.50787 1.66099 5.42411 1.88102 5.40474L5.91031 5.07967L7.46466 1.31808C7.5488 1.11308 7.69199 0.937721 7.87604 0.814308C8.06009 0.690895 8.27669 0.625 8.49828 0.625C8.71988 0.625 8.93647 0.690895 9.12052 0.814308C9.30457 0.937721 9.44777 1.11308 9.5319 1.31808L11.0856 5.07967L15.1149 5.40474C15.3353 5.42339 15.5454 5.50668 15.7187 5.64418C15.8921 5.78168 16.021 5.96728 16.0893 6.17772C16.1576 6.38816 16.1623 6.61408 16.1028 6.82719C16.0433 7.04029 15.9222 7.23109 15.7548 7.37568L15.7589 7.375Z" fill="#FFD339"/>
</svg>
