<svg width="16" height="16" viewBox="0 0 16 16" fill="none" xmlns="http://www.w3.org/2000/svg">
<path d="M15.4366 7.375L12.3634 10.0268L13.2997 13.9926C13.3514 14.2079 13.3381 14.4337 13.2615 14.6414C13.1849 14.8491 13.0485 15.0295 12.8694 15.1597C12.6904 15.2899 12.4768 15.3642 12.2555 15.3731C12.0343 15.3819 11.8154 15.325 11.6265 15.2096L8.17772 13.087L4.72687 15.2096C4.53799 15.3244 4.31937 15.3807 4.09853 15.3715C3.8777 15.3623 3.66452 15.288 3.48585 15.1579C3.30718 15.0277 3.171 14.8477 3.09446 14.6403C3.01793 14.433 3.00445 14.2076 3.05574 13.9926L3.99545 10.0268L0.922261 7.375C0.755146 7.23057 0.634286 7.0401 0.574773 6.82739C0.515261 6.61468 0.519734 6.38915 0.587635 6.17896C0.655535 5.96878 0.783853 5.78325 0.956564 5.64556C1.12927 5.50787 1.33872 5.42411 1.55875 5.40474L5.58805 5.07967L7.1424 1.31808C7.22653 1.11308 7.36973 0.937721 7.55378 0.814308C7.73783 0.690895 7.95442 0.625 8.17602 0.625C8.39761 0.625 8.61421 0.690895 8.79826 0.814308C8.98231 0.937721 9.1255 1.11308 9.20963 1.31808L10.7633 5.07967L14.7926 5.40474C15.0131 5.42339 15.2231 5.50668 15.3965 5.64418C15.5698 5.78168 15.6987 5.96728 15.767 6.17772C15.8354 6.38816 15.8401 6.61408 15.7806 6.82719C15.721 7.04029 15.6 7.23109 15.4325 7.37568L15.4366 7.375Z" fill="#C8C8C8"/>
</svg>
