<svg width="228" height="55" viewBox="0 0 228 55" fill="none" xmlns="http://www.w3.org/2000/svg">
<path fill-rule="evenodd" clip-rule="evenodd" d="M0 8.1788C0 6.9744 0.976357 5.99805 2.18076 5.99805H27.6628C28.8672 5.99805 29.8435 6.9744 29.8435 8.1788V20.3324H17.1026C15.8982 20.3324 14.9218 21.3087 14.9218 22.5131V27.4995H9.93977C8.73538 27.4995 7.75902 28.4759 7.75902 29.6803V34.6667H0V8.1788ZM14.9218 34.6667H7.75902V39.0558C7.75902 40.2602 8.73537 41.2366 9.93977 41.2366H14.9218V49.001H42.5846C43.789 49.001 44.7653 48.0246 44.7653 46.8202V22.5131C44.7653 21.3087 43.789 20.3324 42.5846 20.3324H29.8435V32.4859C29.8435 33.6903 28.8672 34.6667 27.6628 34.6667H22.0591V29.6803C22.0591 28.4759 21.0827 27.4995 19.8783 27.4995H14.9218V34.6667ZM14.9218 34.6667H22.0591V39.0558C22.0591 40.2602 21.0827 41.2366 19.8783 41.2366H14.9218V34.6667Z" fill="#242424"/>
<path d="M0 34.5508H14.9805V49.0026H2.1815C0.97669 49.0026 0 48.0259 0 46.8211V34.5508Z" fill="#242424"/>
<path d="M68.8063 43.6504C64.7954 43.6504 61.4711 42.3676 58.8333 39.8021C56.2316 37.2004 54.9307 33.8941 54.9307 29.8832C54.9307 25.8723 56.2316 22.5841 58.8333 20.0185C61.4711 17.453 64.7954 16.1702 68.8063 16.1702C73.4315 16.1702 76.8824 17.7421 79.1588 20.8858L74.6601 25.1135C73.3954 23.2345 71.5526 22.295 69.1316 22.295C67.0358 22.295 65.3194 22.9996 63.9824 24.4089C62.6816 25.782 62.0311 27.6067 62.0311 29.8832C62.0311 32.1597 62.6816 34.0025 63.9824 35.4118C65.3194 36.821 67.0358 37.5256 69.1316 37.5256C71.4803 37.5256 73.3231 36.5681 74.6601 34.653L79.1588 38.8807C76.8462 42.0605 73.3954 43.6504 68.8063 43.6504ZM105.339 39.6937C102.81 42.3315 99.4496 43.6504 95.258 43.6504C91.0664 43.6504 87.7059 42.3315 85.1765 39.6937C82.6832 37.0198 81.4366 33.7496 81.4366 29.8832C81.4366 26.0168 82.6832 22.7647 85.1765 20.1269C87.7059 17.4891 91.0664 16.1702 95.258 16.1702C99.4496 16.1702 102.81 17.4891 105.339 20.1269C107.869 22.7647 109.134 26.0168 109.134 29.8832C109.134 33.7496 107.869 37.0198 105.339 39.6937ZM95.258 37.5256C97.3538 37.5256 98.9979 36.803 100.19 35.3576C101.383 33.8761 101.979 32.0513 101.979 29.8832C101.979 27.7513 101.383 25.9626 100.19 24.5173C98.9979 23.0357 97.3538 22.295 95.258 22.295C93.1983 22.295 91.5723 23.0357 90.3798 24.5173C89.1874 25.9626 88.5912 27.7513 88.5912 29.8832C88.5912 32.0513 89.1874 33.8761 90.3798 35.3576C91.5723 36.803 93.1983 37.5256 95.258 37.5256ZM120.635 43H113.751V6.84754H120.635V43ZM133.802 43H126.918V6.84754H133.802V43ZM162.742 43H155.804V40.2357C153.925 42.5122 151.161 43.6504 147.511 43.6504C145.199 43.6504 143.103 42.8916 141.224 41.374C139.381 39.8202 138.46 37.6882 138.46 34.9782C138.46 32.1235 139.363 30.0097 141.17 28.6366C142.976 27.2273 145.09 26.5227 147.511 26.5227C151.233 26.5227 153.997 27.5887 155.804 29.7206V26.4143C155.804 25.0773 155.28 24.0114 154.232 23.2164C153.184 22.4215 151.793 22.024 150.059 22.024C147.276 22.024 144.765 23.0538 142.525 25.1135L139.815 20.2895C142.886 17.5433 146.698 16.1702 151.251 16.1702C154.612 16.1702 157.358 16.9471 159.49 18.5009C161.658 20.0547 162.742 22.5841 162.742 26.0891V43ZM150.276 38.9891C152.841 38.9891 154.684 38.2303 155.804 36.7126V33.4605C154.648 31.9067 152.805 31.1299 150.276 31.1299C148.866 31.1299 147.692 31.4912 146.752 32.2139C145.813 32.9366 145.343 33.8941 145.343 35.0866C145.343 36.279 145.813 37.2366 146.752 37.9593C147.692 38.6458 148.866 38.9891 150.276 38.9891ZM179.705 53.6235C175.189 53.6235 171.431 52.3227 168.431 49.721L171.521 44.7887C173.508 46.9206 176.236 47.9865 179.705 47.9865C181.693 47.9865 183.391 47.4626 184.8 46.4147C186.246 45.4029 186.968 43.6866 186.968 41.2655V38.7181C184.836 41.4282 182.126 42.7832 178.838 42.7832C175.441 42.7832 172.659 41.6269 170.491 39.3143C168.359 37.0017 167.293 33.7315 167.293 29.5038C167.293 25.3122 168.359 22.0421 170.491 19.6933C172.659 17.3446 175.441 16.1702 178.838 16.1702C182.162 16.1702 184.873 17.5072 186.968 20.1811V16.8206H193.852V41.2655C193.852 43.6143 193.418 45.6378 192.551 47.3361C191.72 49.0344 190.582 50.3172 189.136 51.1844C187.691 52.0517 186.191 52.6659 184.638 53.0273C183.12 53.4248 181.476 53.6235 179.705 53.6235ZM181.06 36.7126C182.144 36.7126 183.246 36.4235 184.367 35.8454C185.487 35.2672 186.354 34.5626 186.968 33.7315V25.2219C186.354 24.3908 185.487 23.7042 184.367 23.1622C183.283 22.5841 182.181 22.295 181.06 22.295C179.073 22.295 177.465 22.9454 176.236 24.2463C175.008 25.511 174.394 27.2635 174.394 29.5038C174.394 31.7441 175.008 33.5147 176.236 34.8156C177.465 36.0803 179.073 36.7126 181.06 36.7126ZM212.441 43.6504C208.394 43.6504 205.051 42.3857 202.414 39.8563C199.776 37.3269 198.457 34.0025 198.457 29.8832C198.457 26.053 199.74 22.8189 202.305 20.1811C204.871 17.5072 208.105 16.1702 212.007 16.1702C215.91 16.1702 219.072 17.5072 221.493 20.1811C223.914 22.8189 225.124 26.2698 225.124 30.5336V32.1597H205.666C205.919 33.858 206.696 35.2672 207.996 36.3874C209.333 37.4714 211.068 38.0135 213.2 38.0135C214.392 38.0135 215.639 37.7966 216.94 37.363C218.277 36.8933 219.343 36.2609 220.138 35.466L223.227 40.0189C220.589 42.4399 216.994 43.6504 212.441 43.6504ZM218.512 27.3899C218.367 25.9084 217.753 24.6076 216.669 23.4874C215.621 22.3673 214.067 21.8072 212.007 21.8072C210.02 21.8072 208.484 22.3673 207.4 23.4874C206.352 24.5715 205.756 25.8723 205.612 27.3899H218.512Z" fill="#242424"/>
</svg>
