<svg width="29" height="29" viewBox="0 0 29 29" fill="none" xmlns="http://www.w3.org/2000/svg">
<g id="ic:baseline-supervised-user-circle">
<path id="Vector" d="M14.4881 2.41699C7.81812 2.41699 2.40479 7.83033 2.40479 14.5003C2.40479 21.1703 7.81812 26.5837 14.4881 26.5837C21.1581 26.5837 26.5714 21.1703 26.5714 14.5003C26.5714 7.83033 21.1581 2.41699 14.4881 2.41699ZM18.8502 10.0778C20.1431 10.0778 21.1823 11.117 21.1823 12.4099C21.1823 13.7028 20.1431 14.742 18.8502 14.742C17.5573 14.742 16.5181 13.7028 16.5181 12.4099C16.506 11.117 17.5573 10.0778 18.8502 10.0778ZM11.6002 8.16866C13.171 8.16866 14.4519 9.44949 14.4519 11.0203C14.4519 12.5912 13.171 13.872 11.6002 13.872C10.0294 13.872 8.74853 12.5912 8.74853 11.0203C8.74853 9.43741 10.0173 8.16866 11.6002 8.16866ZM11.6002 19.2007V23.732C8.7002 22.8257 6.40437 20.5903 5.38937 17.7387C6.65812 16.3853 9.82395 15.6966 11.6002 15.6966C12.2406 15.6966 13.0502 15.7932 13.896 15.9624C11.9144 17.0137 11.6002 18.4032 11.6002 19.2007ZM14.4881 24.167C14.1619 24.167 13.8477 24.1549 13.5335 24.1187V19.2007C13.5335 17.4849 17.086 16.627 18.8502 16.627C20.1431 16.627 22.3785 17.0982 23.4902 18.0166C22.0765 21.6053 18.5844 24.167 14.4881 24.167Z" fill="#5D8861"/>
</g>
</svg>
